<svg xmlns="http://www.w3.org/2000/svg" viewBox="0 0 486.00 728.00" fill="currentColor"><path d="M480 714L6 714L6 594Q6 530 34 488Q62 446 113 419.50Q164 393 234 378Q323 358 362.50 320.50Q402 283 402 230L402 224Q402 188 386 154.50Q370 121 335.50 99.50Q301 78 246 78Q170 78 127 125Q84 172 84 250L84 294L0 294L0 244Q0 180 28 124.50Q56 69 111 34.50Q166 0 246 0Q327 0 380 31.50Q433 63 459.50 112Q486 161 486 215L486 233Q486 312 436 369Q386 426 276 450Q181 471 135.50 505.50Q90 540 90 606L90 636L480 636"/></svg>
